<mxfile>
    <diagram id="f63MNExEARHemv8uKXmC" name="Page-1">
        <mxGraphModel dx="874" dy="414" grid="1" gridSize="10" guides="1" tooltips="1" connect="1" arrows="1" fold="1" page="1" pageScale="1" pageWidth="850" pageHeight="1100" math="0" shadow="0">
            <root>
                <mxCell id="0"/>
                <mxCell id="1" parent="0"/>
                <mxCell id="jFfBIeNJgKm7YW3a5aRN-12" value="API_BUSINESS_PARTNER" style="shape=umlFrame;whiteSpace=wrap;html=1;width=190;height=20;" parent="1" vertex="1">
                    <mxGeometry x="200" y="50" width="360" height="130" as="geometry"/>
                </mxCell>
                <mxCell id="jFfBIeNJgKm7YW3a5aRN-13" value="com.sap.notes" style="shape=umlFrame;whiteSpace=wrap;html=1;width=190;height=20;" parent="1" vertex="1">
                    <mxGeometry x="200" y="220" width="360" height="170" as="geometry"/>
                </mxCell>
                <mxCell id="jFfBIeNJgKm7YW3a5aRN-2" value="A_BusinessPartner" style="html=1;" parent="1" vertex="1">
                    <mxGeometry x="410" y="100" width="110" height="50" as="geometry"/>
                </mxCell>
                <mxCell id="jFfBIeNJgKm7YW3a5aRN-3" value="Notes" style="html=1;" parent="1" vertex="1">
                    <mxGeometry x="230" y="320" width="110" height="50" as="geometry"/>
                </mxCell>
                <mxCell id="jFfBIeNJgKm7YW3a5aRN-5" value="Suppliers" style="html=1;" parent="1" vertex="1">
                    <mxGeometry x="410" y="230" width="110" height="50" as="geometry"/>
                </mxCell>
                <mxCell id="jFfBIeNJgKm7YW3a5aRN-7" value="projects" style="endArrow=block;endSize=16;endFill=0;html=1;exitX=0.5;exitY=0;exitDx=0;exitDy=0;" parent="1" source="jFfBIeNJgKm7YW3a5aRN-5" target="jFfBIeNJgKm7YW3a5aRN-2" edge="1">
                    <mxGeometry x="-0.25" width="160" relative="1" as="geometry">
                        <mxPoint x="580" y="360" as="sourcePoint"/>
                        <mxPoint x="740" y="360" as="targetPoint"/>
                        <mxPoint as="offset"/>
                    </mxGeometry>
                </mxCell>
                <mxCell id="jFfBIeNJgKm7YW3a5aRN-14" value="NotesService" style="shape=umlFrame;whiteSpace=wrap;html=1;width=100;height=20;" parent="1" vertex="1">
                    <mxGeometry x="200" y="440" width="360" height="120" as="geometry"/>
                </mxCell>
                <mxCell id="jFfBIeNJgKm7YW3a5aRN-15" value="Notes" style="html=1;" parent="1" vertex="1">
                    <mxGeometry x="230" y="480" width="110" height="50" as="geometry"/>
                </mxCell>
                <mxCell id="jFfBIeNJgKm7YW3a5aRN-16" value="Suppliers" style="html=1;" parent="1" vertex="1">
                    <mxGeometry x="410" y="480" width="110" height="50" as="geometry"/>
                </mxCell>
                <mxCell id="jFfBIeNJgKm7YW3a5aRN-18" value="projects" style="endArrow=block;endSize=16;endFill=0;html=1;" parent="1" target="jFfBIeNJgKm7YW3a5aRN-3" edge="1">
                    <mxGeometry x="0.091" width="160" relative="1" as="geometry">
                        <mxPoint x="284" y="480" as="sourcePoint"/>
                        <mxPoint x="530" y="265" as="targetPoint"/>
                        <mxPoint as="offset"/>
                    </mxGeometry>
                </mxCell>
                <mxCell id="jFfBIeNJgKm7YW3a5aRN-19" value="projects" style="endArrow=block;endSize=16;endFill=0;html=1;exitX=0.5;exitY=0;exitDx=0;exitDy=0;entryX=0.5;entryY=1;entryDx=0;entryDy=0;" parent="1" source="jFfBIeNJgKm7YW3a5aRN-16" target="jFfBIeNJgKm7YW3a5aRN-5" edge="1">
                    <mxGeometry x="-0.4" width="160" relative="1" as="geometry">
                        <mxPoint x="294" y="490" as="sourcePoint"/>
                        <mxPoint x="294.8148148148148" y="380" as="targetPoint"/>
                        <mxPoint as="offset"/>
                    </mxGeometry>
                </mxCell>
                <mxCell id="w1YGFUIT9ERIj0VLSvAl-2" value="1" style="endArrow=open;html=1;endSize=12;startArrow=diamondThin;startSize=14;startFill=1;edgeStyle=orthogonalEdgeStyle;align=left;verticalAlign=bottom;rounded=0;entryX=1;entryY=0.5;entryDx=0;entryDy=0;" parent="1" source="jFfBIeNJgKm7YW3a5aRN-5" target="jFfBIeNJgKm7YW3a5aRN-3" edge="1">
                    <mxGeometry x="-1" y="3" relative="1" as="geometry">
                        <mxPoint x="420" y="320" as="sourcePoint"/>
                        <mxPoint x="580" y="320" as="targetPoint"/>
                    </mxGeometry>
                </mxCell>
                <mxCell id="2" value="requests" style="html=1;verticalAlign=bottom;endArrow=block;exitX=0;exitY=0.5;exitDx=0;exitDy=0;" parent="1" source="jFfBIeNJgKm7YW3a5aRN-3" edge="1">
                    <mxGeometry x="0.2727" y="-5" width="80" relative="1" as="geometry">
                        <mxPoint x="70" y="310" as="sourcePoint"/>
                        <mxPoint x="120" y="345" as="targetPoint"/>
                        <mxPoint as="offset"/>
                    </mxGeometry>
                </mxCell>
                <mxCell id="3" value="Database" style="html=1;" parent="1" vertex="1">
                    <mxGeometry x="10" y="320" width="110" height="50" as="geometry"/>
                </mxCell>
                <mxCell id="4" value="S/4 System" style="html=1;" parent="1" vertex="1">
                    <mxGeometry x="10" y="100" width="110" height="50" as="geometry"/>
                </mxCell>
                <mxCell id="5" value="requests" style="html=1;verticalAlign=bottom;endArrow=block;exitX=0;exitY=0.5;exitDx=0;exitDy=0;entryX=1;entryY=0.5;entryDx=0;entryDy=0;" parent="1" source="jFfBIeNJgKm7YW3a5aRN-2" target="4" edge="1">
                    <mxGeometry x="0.7241" y="-5" width="80" relative="1" as="geometry">
                        <mxPoint x="240" y="355" as="sourcePoint"/>
                        <mxPoint x="130" y="355" as="targetPoint"/>
                        <mxPoint as="offset"/>
                    </mxGeometry>
                </mxCell>
            </root>
        </mxGraphModel>
    </diagram>
</mxfile>